<?xml version="1.0" standalone="no"?>
<!DOCTYPE svg PUBLIC "-//W3C//DTD SVG 20010904//EN"
 "http://www.w3.org/TR/2001/REC-SVG-20010904/DTD/svg10.dtd">
<svg version="1.0" xmlns="http://www.w3.org/2000/svg"
 width="260.000000pt" height="260.000000pt" viewBox="0 0 260.000000 260.000000"
 preserveAspectRatio="xMidYMid meet">
<metadata>
Created by potrace 1.11, written by Peter Selinger 2001-2013
</metadata>
<g transform="translate(0.000000,260.000000) scale(0.100000,-0.100000)"
fill="#000000" stroke="none">
<path d="M0 1300 l0 -1300 1300 0 1300 0 0 1300 0 1300 -1300 0 -1300 0 0
-1300z m630 1238 c0 -25 199 -1521 203 -1524 4 -4 16 78 153 1059 l67 477 247
0 247 0 67 -477 c137 -979 149 -1063 153 -1059 3 3 203 1499 203 1524 0 9 65
12 290 12 l290 0 -5 -22 c-8 -36 -445 -2470 -445 -2479 0 -5 -133 -9 -295 -9
-162 0 -295 2 -295 3 0 16 -201 1408 -206 1427 -6 21 -71 -407 -204 -1347
l-12 -83 -293 0 -293 0 -6 33 c-53 301 -438 2438 -441 2455 l-5 22 290 0 c225
0 290 -3 290 -12z"/>
</g>
</svg>
